<svg xmlns="http://www.w3.org/2000/svg" xmlns:xlink="http://www.w3.org/1999/xlink" width="11.023681640625"
    height="10.5828857421875" viewBox="0 0 11.023681640625 10.5828857421875" fill="none">
    <path fill="#FFDEB8"
        d="M10.0196 3.27658L8.02859 3.28094C7.59376 3.28189 7.20815 3.00172 7.07468 2.58788L6.46357 0.692998C6.16555 -0.231086 4.85813 -0.231086 4.56011 0.692998L3.949 2.58788C3.81554 3.00172 3.42992 3.28189 2.99509 3.28094L1.00411 3.27658C0.0331597 3.27446 -0.370854 4.51789 0.415908 5.08688L2.0292 6.25363C2.38155 6.50845 2.52884 6.96176 2.39356 7.37502L1.77418 9.26721C1.47212 10.19 2.52984 10.9585 3.31411 10.386L4.92229 9.21225C5.27352 8.95589 5.75016 8.95589 6.10139 9.21225L7.70957 10.386C8.49384 10.9585 9.55156 10.19 9.2495 9.26721L8.63012 7.37502C8.49484 6.96176 8.64213 6.50845 8.99448 6.25363L10.6078 5.08688C11.3945 4.51789 10.9905 3.27446 10.0196 3.27658Z">
    </path>
</svg>