<svg width="20" height="20" viewBox="0 0 20 20" fill="none" xmlns="http://www.w3.org/2000/svg">
<path d="M11.7053 2.8125H11.7444C12.0166 2.8125 12.2777 2.92068 12.4703 3.11324C12.6628 3.3058 12.7709 3.56697 12.7709 3.83929C12.7709 4.11161 12.6628 4.37277 12.4703 4.56533C12.2777 4.75789 12.0166 4.86607 11.7444 4.86607C10.4149 4.86607 9.41813 4.86607 8.62664 4.92973C7.8331 4.99339 7.36395 5.11353 7.04777 5.28192C6.34547 5.66364 5.78146 6.25722 5.43604 6.97817C5.2605 7.34165 5.1486 7.80576 5.08906 8.56763C5.03568 9.24326 5.02952 10.0832 5.02746 11.2167L5.73888 10.5062C5.93137 10.3135 6.1925 10.2052 6.46482 10.2051C6.73714 10.2051 6.99835 10.3132 7.19098 10.5057C7.3836 10.6982 7.49187 10.9594 7.49197 11.2318C7.49207 11.5042 7.38398 11.7654 7.19149 11.9581L4.7277 14.4224C4.62932 14.521 4.51189 14.5986 4.38257 14.6504C4.25326 14.7021 4.11475 14.7271 3.9755 14.7236C3.83624 14.7202 3.69915 14.6884 3.57256 14.6302C3.44597 14.5721 3.33254 14.4888 3.23917 14.3854L1.0115 11.9211C0.921038 11.8211 0.851154 11.7043 0.805835 11.5773C0.760516 11.4503 0.74065 11.3156 0.74737 11.181C0.754091 11.0463 0.787266 10.9142 0.845003 10.7924C0.90274 10.6705 0.983907 10.5613 1.08387 10.4708C1.18383 10.3803 1.30063 10.3104 1.42761 10.2651C1.55458 10.2197 1.68923 10.1999 1.82388 10.2066C1.95853 10.2133 2.09053 10.2465 2.21236 10.3043C2.33419 10.362 2.44345 10.4432 2.53391 10.5432L2.97534 11.0319C2.97636 9.98665 2.9856 9.12621 3.04207 8.40848C3.11085 7.52647 3.25354 6.77384 3.58923 6.08179C4.12369 4.97076 4.9953 4.05694 6.07971 3.47067C6.76751 3.10205 7.5744 2.9542 8.46342 2.88335C9.34627 2.8125 10.4252 2.8125 11.7053 2.8125ZM15.9934 5.27679C16.1324 5.2805 16.2693 5.31245 16.3957 5.3707C16.522 5.42895 16.6352 5.51228 16.7284 5.61563L18.9571 8.07991C19.0546 8.17853 19.1312 8.29589 19.1821 8.42491C19.2331 8.55394 19.2574 8.69195 19.2535 8.83062C19.2497 8.96929 19.2177 9.10574 19.1597 9.23174C19.1017 9.35773 19.0187 9.47066 18.9158 9.5637C18.813 9.65674 18.6923 9.72796 18.5611 9.77307C18.43 9.81818 18.291 9.83623 18.1527 9.82615C18.0144 9.81607 17.8795 9.77805 17.7563 9.7144C17.6331 9.65075 17.524 9.56278 17.4357 9.4558L16.9943 8.96808C16.9922 10.0133 16.983 10.8738 16.9265 11.5915C16.8577 12.4735 16.715 13.2262 16.3794 13.9182C15.8449 15.0292 14.9733 15.9431 13.8889 16.5293C13.2011 16.8969 12.3942 17.0458 11.5052 17.1167C10.6223 17.1875 9.5444 17.1875 8.26426 17.1875H8.2232C7.95093 17.1875 7.68982 17.0793 7.4973 16.8868C7.30478 16.6942 7.19662 16.433 7.19662 16.1607C7.19662 15.8884 7.30478 15.6272 7.4973 15.4347C7.68982 15.2421 7.95093 15.1339 8.2232 15.1339C9.55364 15.1339 10.5504 15.1339 11.3419 15.0703C12.1355 15.0066 12.6046 14.8865 12.9208 14.7181C13.6231 14.3364 14.1871 13.7428 14.5325 13.0218C14.7081 12.6583 14.82 12.1942 14.8795 11.4324C14.9329 10.7567 14.9401 9.91683 14.9411 8.78326L14.2297 9.49379C14.0361 9.68083 13.7768 9.78433 13.5076 9.78199C13.2384 9.77965 12.981 9.67166 12.7906 9.48129C12.6003 9.29091 12.4923 9.03338 12.49 8.76416C12.4876 8.49494 12.5911 8.23557 12.7781 8.04192L15.2419 5.57763C15.3402 5.47917 15.4576 5.40172 15.5867 5.35001C15.7159 5.29829 15.8543 5.27338 15.9934 5.27679Z" fill="#F3EABA"/>
</svg>
